<svg id="Group_199" data-name="Group 199" xmlns="http://www.w3.org/2000/svg" width="411.381" height="86.706" viewBox="0 0 411.381 86.706">
  <g id="Group_198" data-name="Group 198">
    <g id="Group_195" data-name="Group 195" transform="translate(68.354)">
      <path id="Path_2409" data-name="Path 2409" d="M1705.155,735.805c-5.7,0-11.392-1.9-13.291-5.062-1.9-2.533-1.9-5.065-1.9-16.457v-8.228c0-1.265-1.9-1.265-2.533-1.265h-.631l.631-1.9h12.026l-.634,1.9c-1.265,0-3.164,0-3.164,1.9V721.25c0,4.428,0,11.392,8.86,11.392,6.329,0,9.493-3.166,9.493-10.127V706.058c0-1.265-2.53-1.265-2.53-1.265l.631-1.9h8.862l-.633,1.9h-.634c-.631,0-1.9,0-1.9,1.9V721.25c0,1.9-.631,7.595-3.164,10.758-1.9,2.532-6.33,3.8-9.493,3.8" transform="translate(-1686.802 -701.63)" fill="#fff"/>
      <path id="Path_2410" data-name="Path 2410" d="M1731.379,735.172c-4.429-5.062-7.594-7.595-9.493-10.124l-3.163-3.166-3.164-3.8c-3.166-3.8-5.7-6.327-6.964-7.595V734.54H1701l.633-1.9c1.265,0,2.532,0,2.532-1.9V706.058c0-1.265-1.267-1.265-2.532-1.265l.631-1.9h5.065l9.493,10.76s10.127,10.758,12.657,13.291V702.895h8.229v1.9c-.634,0-3.164,0-3.164,1.265,0,0-.633,13.293-.633,17.09v12.023h-2.533" transform="translate(-1663.662 -701.63)" fill="#fff"/>
      <path id="Path_2411" data-name="Path 2411" d="M1718.391,733.035h0c1.267,0,2.532,0,2.532-1.267V705.82c0-1.268-1.9-1.268-3.164-1.268h-.634l.634-1.9h10.759l-.631,1.9c-1.268,0-1.9,0-1.9,1.268v25.947c0,.634.631.634,1.265,1.267h2.532l-.634,1.9h-10.76v-1.9" transform="translate(-1637.383 -702.023)" fill="#fff"/>
      <path id="Path_2412" data-name="Path 2412" d="M1739.268,735.564s-3.164-7.595-6.961-16.454c-2.532-5.062-5.062-10.127-6.33-12.659l-.631-.631a2.527,2.527,0,0,0-2.532-1.268h-.634l.634-1.9h6.33l9.492,19.62c1.265,3.8,1.9,5.065,2.53,6.963,0-1.268,4.431-11.392,4.431-11.392s4.431-9.5,5.065-11.395l1.264-3.8h6.33l.631,2.533c-.631,0-1.9,0-3.8,3.166-1.265,1.9-4.428,9.493-4.428,9.493l-7.6,17.719h-3.8" transform="translate(-1629.147 -702.023)" fill="#fff"/>
      <path id="Path_2413" data-name="Path 2413" d="M1781.385,736.589c-5.063,0-8.86-.634-13.922-5.7-5.7-6.33-12.026-13.29-12.026-13.924v18.355h-8.229l.634-1.9c1.265,0,1.9,0,2.529-.634V706.211c0-1.268-1.9-1.268-2.529-1.268l.631-1.9h13.293c3.164,0,8.86,1.268,8.86,5.7,0,5.062-4.431,7.595-8.86,8.86,13.291,13.924,16.454,15.823,22.15,15.823h1.265c2.532-.634,6.963-2.532,6.963-6.964,0-2.53,0-5.7-6.963-5.7-5.7-.631-8.86-3.163-8.86-7.594a9.521,9.521,0,0,1,2.532-6.961,12.876,12.876,0,0,1,9.493-3.8c5.063,0,6.961,2.53,6.961,2.53l-.632,5.7h-1.9l-.631-2.532c0-.634-2.532-1.9-5.7-1.9-3.8,0-5.7,1.9-5.7,5.062s2.53,5.065,7.594,5.7c5.7.634,8.229,3.166,8.229,7.595,0,6.33-7.6,12.026-15.191,12.026m-25.948-30.378v10.758c5.7-.631,8.86-2.53,8.86-6.961,0-3.8-3.8-4.431-6.327-4.431-1.9,0-1.9.634-2.533.634" transform="translate(-1588.355 -702.414)" fill="#fff"/>
      <path id="Path_2414" data-name="Path 2414" d="M1768.78,733.273h0c1.267,0,2.533,0,2.533-1.265v-25.95c0-1.265-1.266-1.265-2.533-1.265h-.631l.631-1.9h10.761l-.635,1.9c-1.264,0-2.532,0-2.532,1.265v25.95c0,.633.634.633.634,1.265h2.533l-.635,1.9h-10.758l.631-1.9" transform="translate(-1554.232 -701.63)" fill="#fff"/>
      <path id="Path_2415" data-name="Path 2415" d="M1813.948,735.564h-5.7l.633-1.9s2.532,0,2.532-1.265v-8.86c0-1.9-1.268-3.166-3.166-6.33a11.1,11.1,0,0,0-2.53-3.164c-5.065-7.6-5.7-7.6-8.862-7.6H1789.9V732.4c0,.633.631.633.631,1.265h2.532l-.631,1.9h-10.76l.633-1.9h1.265c.635,0,1.9,0,1.9-1.265V705.82h-8.228c-1.9,0-2.53,2.53-2.53,2.53l-1.268-.631,1.9-5.065h25.316c5.065,0,5.7,1.9,8.862,6.33a13.951,13.951,0,0,1,1.9,3.166,36.2,36.2,0,0,1,2.53,4.428l1.268,2.533c.631-1.265,4.428-7.595,6.961-11.392l2.532-3.8a1.967,1.967,0,0,0,.631-1.268h5.7v.634c-.634,0-2.532,1.265-3.8,3.163-.631.634-.631,1.268-1.265,1.9-3.164,3.8-9.494,12.659-9.494,15.823V732.4c0,.633.634.633.634,1.265h2.53l-.631,1.9h-5.065" transform="translate(-1545.604 -702.023)" fill="#fff"/>
      <path id="Path_2416" data-name="Path 2416" d="M1753.948,735.564h-17.087l.634-1.9a2.479,2.479,0,0,0,2.532-2.53V705.82c0-1.268-1.267-1.268-1.9-1.268h-.634l.634-1.9h15.82a9.167,9.167,0,0,1,3.8.634v4.431l-1.9,1.265c0-1.9-.632-3.163-5.062-3.163h-5.062v10.758h11.392l-1.267,3.8h-10.125V732.4h10.759V727.97l2.532,1.9v5.7h-5.065" transform="translate(-1605.221 -702.023)" fill="#fff"/>
    </g>
    <g id="Group_197" data-name="Group 197" transform="translate(0 49.364)">
      <path id="Path_2417" data-name="Path 2417" d="M1676.632,754.576c-9.494,0-15.823-6.327-15.823-15.82,0-6.964,3.163-12.659,8.859-15.189a25.373,25.373,0,0,1,9.493-1.9c9.5,0,15.191,5.7,15.191,14.555,1.265,10.127-6.963,18.352-17.721,18.352M1677.9,724.2a11.543,11.543,0,0,0-10.759,6.33,22.743,22.743,0,0,0-1.267,6.961c0,5.7,1.9,9.493,5.7,12.025a12.767,12.767,0,0,0,6.963,1.9c6.961,0,12.026-5.7,12.026-13.924,0-5.7-1.9-9.493-6.329-11.392-1.268-1.265-3.8-1.9-6.33-1.9" transform="translate(-1660.809 -720.4)" fill="#fff"/>
      <path id="Path_2418" data-name="Path 2418" d="M1676.6,752.2a2.32,2.32,0,0,0,2.532-2.532V724.352c0-1.267-1.9-1.267-2.532-1.267h-.634l.634-1.9h16.453a9.175,9.175,0,0,1,3.8.634v4.431l-1.9,1.265c0-1.265-.631-3.164-5.062-3.164h-5.062V735.11h11.392l-1.267,3.163h-10.125v12.659c0,.631.632.631.632,1.265H1688l-.634,1.9h-11.392l.634-1.9" transform="translate(-1636.099 -721.186)" fill="#fff"/>
      <path id="Path_2419" data-name="Path 2419" d="M1722.3,753.311c-4.431-5.062-6.964-7.595-9.493-10.127l-3.166-3.163-2.53-2.532c-3.8-3.8-6.329-6.961-7.594-8.226v24.048h-7.595l.631-1.9c1.267,0,2.532,0,2.532-1.9V724.831c0-1.265-1.265-1.265-3.8-1.265h-.633l.633-1.9h6.33l9.493,10.758s10.124,10.758,12.656,13.29V721.668h7.595l-.631,1.9c-.634,0-2.532,0-2.532,1.265,0,0-.634,13.29-.634,17.088v12.026H1722.3v-.634" transform="translate(-1612.174 -720.4)" fill="#fff"/>
      <path id="Path_2420" data-name="Path 2420" d="M1750.266,756.867c-1.264-.631-3.163-2.53-5.062-5.062-.634-1.265-1.9-1.9-2.533-3.163-6.327-6.964-12.023-13.29-12.023-13.924V753.07h-8.228l.633-1.9c1.265,0,1.9,0,2.531-.631v-.634l.634-15.189c0-3.8,0-6.961-.634-8.859V724.59c0-1.265-1.9-1.265-2.531-1.265l.631-1.9h12.659c3.163,0,8.86,1.265,8.86,5.7,0,5.062-3.8,6.961-7.595,8.228a2.207,2.207,0,0,0-1.265.631,79.7,79.7,0,0,1,7.595,7.595c3.164,3.166,6.327,6.964,9.493,9.493a23.6,23.6,0,0,0,4.431,3.8h-7.6m-17.719-32.908h-1.9v10.758a9.572,9.572,0,0,0,5.062-1.265q3.8-1.9,3.8-5.7c-.632-2.533-2.531-3.8-6.96-3.8" transform="translate(-1560.4 -720.793)" fill="#fff"/>
      <path id="Path_2421" data-name="Path 2421" d="M1722.6,754.73c-9.493,0-15.823-6.33-15.823-15.823,0-7.594,3.166-12.657,8.862-15.822a25.4,25.4,0,0,1,9.493-1.9c9.493,0,15.823,5.7,15.823,14.558.631,11.392-7.6,18.987-18.355,18.987m1.265-30.378a11.54,11.54,0,0,0-10.758,6.327,22.739,22.739,0,0,0-1.265,6.963c0,5.7,1.9,9.493,5.7,12.023a12.738,12.738,0,0,0,6.96,1.9c6.961,0,12.026-5.7,12.026-13.922,0-5.065-1.9-8.862-6.329-11.392a10.682,10.682,0,0,0-6.33-1.9" transform="translate(-1585.895 -721.186)" fill="#fff"/>
      <path id="Path_2422" data-name="Path 2422" d="M1742.656,751.8c.633,0,1.9,0,1.9-1.265V724.59h-8.228c-1.9,0-2.53,2.532-2.53,2.532l-1.268-.634,1.9-5.062h26.581l-.631,5.062h-1.267a3.133,3.133,0,0,0-.631-1.9c-.634-.631-.634-.631-1.268-.631h-6.961V750.54c0,.631.634.631,1.265,1.265h2.532l-.634,1.9h-10.124l-.633-1.9" transform="translate(-1543.927 -720.793)" fill="#fff"/>
      <path id="Path_2423" data-name="Path 2423" d="M1769.487,751.8h0c1.265,0,2.53,0,2.53-1.265V738.515h-18.353V750.54c0,.631.631.631,1.265,1.265h2.532l-.634,1.9H1746.07l.631-1.9h.634c.633,0,1.9,0,1.9-1.265l.633-15.189-1.9-10.761c0-1.265-1.267-1.265-2.532-1.265h-.634l.634-1.9H1756.2l-.634,1.9c-1.268,0-2.532,0-2.532,1.265v10.127h18.986V724.59c0-1.265-1.265-1.265-2.53-1.265h-.634l.634-1.9h10.758l-.634,1.9c-1.265,0-2.53,0-2.53,1.265v1.268c0,1.9-.634,5.062-.634,8.859,0,4.431,0,10.127.634,13.29v2.533c0,1.265,1.9,1.265,2.53,1.265h.634l-.634,1.9h-10.758l.634-1.9" transform="translate(-1523.925 -720.793)" fill="#fff"/>
      <path id="Path_2424" data-name="Path 2424" d="M1784.754,756.629a28.113,28.113,0,0,0,3.8-3.166,150.741,150.741,0,0,0,11.392-13.922l1.265-1.268c-.631-.631-.631-1.265-1.265-1.265-.633-.634-1.265-1.9-1.9-2.533-.634-1.265-1.9-2.53-2.532-4.428-3.8-5.7-4.428-6.33-7.595-6.33l.634-1.9h6.961s5.065,7.595,7.594,11.392l1.267,1.265a2.2,2.2,0,0,0,.632-1.265,34.843,34.843,0,0,1,4.431-5.7c1.9-1.9,3.163-4.431,3.8-4.431a1.955,1.955,0,0,0,.634-1.265h5.7a12.957,12.957,0,0,0-3.166,3.163l-2.529,3.166c-1.9,2.53-5.065,6.327-6.964,8.86l-.631.633v.631a.619.619,0,0,0,.631.634c1.268,1.9,5.7,8.86,8.229,12.026a1.955,1.955,0,0,1,.634,1.265l.631-.634,5.7-12.023,7.595-17.721h3.8s1.9,4.431,5.7,12.657c4.429,9.493,6.327,12.659,8.226,17.088a3.722,3.722,0,0,0,3.166,1.267l.63-6.33h2.533l.634,2.532c0,.631,2.53,1.9,5.7,1.9a7.188,7.188,0,0,0,5.062-1.9c.634-1.268,1.267-1.9,1.267-3.8,0-3.166-2.532-5.065-8.228-5.7s-8.862-3.166-8.862-7.595c0-1.9.633-4.431,1.9-5.7a13.52,13.52,0,0,1,10.761-5.065,10.765,10.765,0,0,1,4.431.634c1.9.634,2.53,1.265,2.53,1.9l-.631,6.33h-2.533l-.634-2.532c0-.634-2.532-1.9-5.7-1.9-3.8,0-5.7,1.9-6.33,5.062,0,3.8,2.533,5.7,8.229,6.33s8.862,3.163,8.862,7.595c0,1.9-.634,4.431-1.9,5.7a13.526,13.526,0,0,1-10.761,5.062,10.811,10.811,0,0,1-4.431-.631h-1.264v.631h-8.229l-5.7-12.023H1825.26l-1.265,2.53c-1.268,2.532-1.9,4.431-2.533,5.7v1.267a3.817,3.817,0,0,0,2.533.631l-.634,1.9h-12.025c-1.9-2.53-4.431-6.961-6.329-9.493l-1.265-1.9-.634-.631-.631.631-3.8,4.431c-3.166,3.8-6.33,8.228-6.964,8.86l-.631,1.268-6.33-1.9h0m41.77-17.722h9.493l-1.9-4.431-1.264-3.8a10.638,10.638,0,0,1-1.265-3.164c-.633,1.9-4.431,11.392-5.064,11.392h0" transform="translate(-1458.815 -721.186)" fill="#fff"/>
      <path id="Path_2425" data-name="Path 2425" d="M1774.906,751.8c.634,0,1.9,0,1.9-1.265V724.59h-8.228c-1.9,0-2.53,2.532-2.53,2.532l-1.267-.634,1.9-5.062h26.581l-.631,5.062h-1.267a3.13,3.13,0,0,0-.632-1.9c-.634-.631-.634-.631-1.267-.631H1782.5v25.947c0,.634.634.634,1.265,1.265h1.268l-.633,1.9h-10.127l.634-1.265" transform="translate(-1491.37 -720.793)" fill="#fff"/>
      <path id="Path_2426" data-name="Path 2426" d="M1795.8,753.945h-18.986l.631-1.9a1.963,1.963,0,0,0,1.267-.633c.631-.634,1.265-1.265,1.265-1.9V724.831c0-1.265-1.9-1.265-2.532-1.265h-.631l.631-1.9H1793.9a9.2,9.2,0,0,1,3.8.631v4.431l-1.9,1.265c0-1.9-.634-3.163-5.062-3.163h-5.065v10.758H1797.7l-1.265,3.8h-10.76v12.025H1795.8v-4.431l2.532,1.9v5.7h0l-2.532-.631" transform="translate(-1471.758 -720.4)" fill="#fff"/>
    </g>
  </g>
</svg>
