<?xml version="1.0" encoding="utf-8"?>
<!-- Generator: Adobe Illustrator 26.0.3, SVG Export Plug-In . SVG Version: 6.00 Build 0)  -->
<svg version="1.1" id="Layer_1" xmlns="http://www.w3.org/2000/svg" xmlns:xlink="http://www.w3.org/1999/xlink" x="0px" y="0px"
	 viewBox="0 0 31 31" style="enable-background:new 0 0 31 31;" xml:space="preserve">
<style type="text/css">
	.st0{fill:#595A5A;}
</style>
<g>
	<path class="st0" d="M2.7,0.5H12c0.9,0,1.6,0.7,1.6,1.6v1.1c0,0.9-0.8,1.6-1.6,1.6c0,0,0,0,0,0L8,4.7l14.6,14.5l0,0
		c0.3,0.3,0.4,0.6,0.4,1c0,0.4-0.2,0.7-0.4,1l-1.4,1.4l0,0c-0.3,0.3-0.6,0.4-1,0.4c-0.4,0-0.7-0.2-1-0.4L4.7,8l0.1,3.9v0
		c0,0.9-0.7,1.6-1.6,1.6h-1c-0.9,0-1.6-0.7-1.6-1.6V2.7C0.5,1.5,1.5,0.5,2.7,0.5z M5.2,19.2h1.9c0.5,0,0.9,0.4,0.9,0.9v6.6h18.8V8
		h-8.4c-0.5,0-0.9-0.4-0.9-0.9V5.2c0-0.5,0.4-0.9,0.9-0.9h9.4c1.6,0,2.8,1.3,2.8,2.8v20.6c0,1.6-1.3,2.8-2.8,2.8H7.1
		c-1.6,0-2.8-1.3-2.8-2.8v-7.5C4.2,19.7,4.7,19.2,5.2,19.2z"/>
</g>
</svg>
